<?xml version="1.0" encoding="UTF-8" standalone="no"?>
<!-- Created with Inkscape (http://www.inkscape.org/) -->

<svg
   version="1.1"
   id="svg9"
   width="1056"
   height="1056"
   viewBox="0 0 1056 1056"
   sodipodi:docname="vgsyn_logo.svg"
   inkscape:version="1.2.1 (9c6d41e410, 2022-07-14)"
   inkscape:export-filename="vgsyn_logo_darkBG.png"
   inkscape:export-xdpi="93.089996"
   inkscape:export-ydpi="93.089996"
   xmlns:inkscape="http://www.inkscape.org/namespaces/inkscape"
   xmlns:sodipodi="http://sodipodi.sourceforge.net/DTD/sodipodi-0.dtd"
   xmlns:xlink="http://www.w3.org/1999/xlink"
   xmlns="http://www.w3.org/2000/svg"
   xmlns:svg="http://www.w3.org/2000/svg">
  <defs
     id="defs13">
    <linearGradient
       id="linearGradient29332"
       inkscape:swatch="gradient">
      <stop
         style="stop-color:#dddddd;stop-opacity:1;"
         offset="0.1221865"
         id="stop29328" />
      <stop
         style="stop-color:#938d9b;stop-opacity:1;"
         offset="0.35691321"
         id="stop32293" />
      <stop
         style="stop-color:#eff0f2;stop-opacity:1;"
         offset="0.66559488"
         id="stop35331" />
      <stop
         style="stop-color:#898892;stop-opacity:1;"
         offset="0.94533759"
         id="stop29330" />
    </linearGradient>
    <linearGradient
       id="linearGradient16221"
       inkscape:swatch="solid">
      <stop
         style="stop-color:#f28224;stop-opacity:1;"
         offset="0"
         id="stop16219" />
    </linearGradient>
    <linearGradient
       id="linearGradient13938"
       inkscape:swatch="solid">
      <stop
         style="stop-color:#d65a27;stop-opacity:1;"
         offset="0"
         id="stop13936" />
    </linearGradient>
    <linearGradient
       inkscape:collect="always"
       xlink:href="#linearGradient13938"
       id="linearGradient13940"
       x1="8.7399833"
       y1="592.22222"
       x2="524.00016"
       y2="592.22222"
       gradientUnits="userSpaceOnUse" />
    <inkscape:path-effect
       effect="fill_between_many"
       method="originald"
       linkedpaths="#path37367,0,1|#path37379,0,1"
       id="path-effect37381" />
    <linearGradient
       inkscape:collect="always"
       xlink:href="#linearGradient29332"
       id="linearGradient41133"
       gradientUnits="userSpaceOnUse"
       x1="524.65143"
       y1="203.09692"
       x2="525.80432"
       y2="834.5564"
       gradientTransform="matrix(-1,0,0,1,1050.0548,2.7453949)" />
  </defs>
  <sodipodi:namedview
     id="namedview11"
     pagecolor="#131416"
     bordercolor="#666666"
     borderopacity="1.0"
     inkscape:showpageshadow="2"
     inkscape:pageopacity="0"
     inkscape:pagecheckerboard="0"
     inkscape:deskcolor="#d1d1d1"
     showgrid="false"
     showguides="true"
     inkscape:zoom="1.4142136"
     inkscape:cx="382.54477"
     inkscape:cy="485.78236"
     inkscape:window-width="2560"
     inkscape:window-height="1387"
     inkscape:window-x="1912"
     inkscape:window-y="-8"
     inkscape:window-maximized="1"
     inkscape:current-layer="g15" />
  <g
     inkscape:groupmode="layer"
     inkscape:label="Image"
     id="g15">
    <path
       id="pathBG"
       style="display:inline;fill:url(#linearGradient41133);fill-opacity:1;stroke:#242728;stroke-width:4;stroke-opacity:1;paint-order:stroke fill markers;stroke-dasharray:none"
       d="M 122.64258 200.10156 L 525.88086 855.79102 L 927.41211 202.84766 L 621.54492 361.41602 L 525.88086 514.87109 L 428.50977 358.66992 L 122.64258 200.10156 z M 136.82031 212.48633 L 401.99023 412.89453 L 525.88086 605.80859 L 648.06445 415.64062 L 913.23438 215.23242 L 687.39258 430.68555 L 525.88086 666.36914 L 362.66211 427.93945 L 136.82031 212.48633 z M 149.88867 235.89648 L 420.45312 584.91016 L 432.66602 589.44531 L 525.88086 724.11719 L 617.38867 592.19141 L 629.60156 587.65625 L 900.16602 238.64258 L 525.88086 776.43359 L 149.88867 235.89648 z " />
    <path
       id="pathL"
       style="display:inline;fill:url(#linearGradient13940);fill-opacity:1;stroke:#000000;stroke-width:2.5;stroke-linecap:butt;stroke-linejoin:miter;stroke-miterlimit:20;stroke-dasharray:none;stroke-opacity:1;paint-order:normal"
       d="m -4.2207031,302.35938 140.8515631,78.28906 236.13867,57.34375 -202.25,-32.67969 77.50781,51.35352 h 85.27539 l -19.26757,6.16015 89.18359,10.80664 -118.59961,-7.88086 c 7.70956,2.15283 33.74027,8.34301 41.44922,10.49805 l -58.92774,-2.20898 143.96094,86.36718 -62.43554,-50.46875 74.78125,-2.07031 -53.82618,11.34375 80.93164,40.79297 -33.57031,-26.72266 35.06446,-8.25586 25.59179,23.7461 -28.87695,-61.09961 38.72266,41.9707 11.87109,58.89063 -56.14063,187.61718 41.14258,-50.76367 -3.52539,49.26367 19.43164,-50.65039 -17.50195,106.41407 26.24414,-68.21094 9.8125,119.21484 7.0625,-30.02344 L 526,449.4668 l -8.45312,-32.33008 -12.67449,-16.69405 16.02027,12.40874 4.9882,-0.003 v -33.23633 h -11.67865 l 1.35638,2.77269 -15.06973,2.00194 10.25838,1.32311 -14.55779,6.97376 6.34968,11.99126 -5.20404,31.8054 6.96109,-17.04716 -7.47196,53.41457 -108.38477,-97.25196 11.45899,26.08789 -196.9043,-61.51367 30.58203,21.83203 z"
       sodipodi:nodetypes="cccccccccccccccccccccccccccccccccccccccccccccccccc" />
    <path
       id="pathR"
       style="display:inline;fill:url(#linearGradient16221);fill-opacity:1;stroke:#000000;stroke-width:2.5;stroke-linecap:butt;stroke-linejoin:miter;stroke-miterlimit:20;stroke-dasharray:none;stroke-opacity:1;paint-order:normal"
       d="m 1055.9825,302.35938 -140.85163,78.28906 -236.13868,57.34375 202.25,-32.67969 -77.50781,51.35352 h -85.27539 l 19.26757,6.16015 -89.18358,10.80664 118.5996,-7.88086 c -7.70956,2.15283 -33.74027,8.34301 -41.44921,10.49805 l 58.92774,-2.20898 -143.96095,86.36718 62.43555,-50.46875 -74.78126,-2.07031 53.82618,11.34375 -80.93164,40.79297 33.57031,-26.72266 -35.06446,-8.25586 -25.59179,23.7461 L 603,487.67383 l -38.72266,41.9707 -11.87109,58.89063 56.14063,187.61718 -41.14258,-50.76367 3.52539,49.26367 L 551.49805,724.00195 569,830.41602 l -26.24414,-68.21094 -9.8125,119.21484 -7.0625,-30.02344 -0.11914,-401.92968 8.45312,-32.33008 12.67449,-16.69405 -16.02027,12.40874 -4.9882,-0.003 v -33.23633 h 11.67865 l -1.35638,2.77269 15.17187,2.00194 -10.36052,1.32311 14.55779,6.97376 -6.34968,11.99126 5.21457,31.8054 -6.97162,-17.04716 7.47196,53.41457 108.38477,-97.25196 -11.45899,26.08789 196.9043,-61.51367 -30.58203,21.83203 z"
       sodipodi:nodetypes="cccccccccccccccccccccccccccccccccccccccccccccccccc" />
  </g>
</svg>
